<svg id="Layer_1" data-name="Layer 1" xmlns="http://www.w3.org/2000/svg" viewBox="0 0 233.29 54.07"><defs><style>.cls-1{fill:#1e2830;}.cls-2{fill:#e23333;}.cls-3{isolation:isolate;font-size:48px;font-family:Roboto-Thin, Roboto;}</style></defs><title>capew</title><g id="Layer_2" data-name="Layer 2"><g id="Layer_1-2" data-name="Layer 1-2"><g id="Layer_2-2" data-name="Layer 2-2"><g id="Layer_1-2-2" data-name="Layer 1-2-2"><path class="cls-1" d="M57.17,13.08A20,20,0,0,0,24.91,35.69,9.44,9.44,0,0,0,34,35.51,12.29,12.29,0,0,1,51.27,18c.16.16.32.32.47.49l8.67,8.71L40.64,47.07a23.18,23.18,0,0,0,2.36.15,19.89,19.89,0,0,0,14.14-5.86L71.31,27.22Z" transform="translate(-1 -3)"/><path class="cls-2" d="M15.14,41.36A20,20,0,0,0,47.41,18.75a9.48,9.48,0,0,0-9.08.18,12.29,12.29,0,0,1-17.74,17h0L11.9,27.22,31.68,7.37q-1.2-.13-2.4-.15a19.89,19.89,0,0,0-14.14,5.86L1,27.22Z" transform="translate(-1 -3)"/></g></g><text class="cls-3" transform="translate(73.89 41.06)">CAPEW</text></g></g></svg>