<svg xmlns="http://www.w3.org/2000/svg" viewBox="0 0 70.31 40"><defs><style>.cls-1{fill:#1e2830;}.cls-2{fill:#e23333;}</style></defs><title>Asset 2</title><g id="Layer_2" data-name="Layer 2"><g id="Layer_1-2" data-name="Layer 1"><path class="cls-1" d="M56.17,5.86A20,20,0,0,0,23.91,28.47,9.46,9.46,0,0,0,33,28.29a12.28,12.28,0,0,1,17.74-17L59.41,20,39.64,39.85A21.15,21.15,0,0,0,42,40a19.9,19.9,0,0,0,14.14-5.86L70.31,20Z"/><path class="cls-2" d="M14.14,34.14A20,20,0,0,0,46.41,11.53a9.48,9.48,0,0,0-9.08.18,12.28,12.28,0,0,1-17.74,17L10.9,20,30.68.15A21.48,21.48,0,0,0,28.28,0,19.94,19.94,0,0,0,14.14,5.86L0,20Z"/></g></g></svg>