<svg xmlns="http://www.w3.org/2000/svg" viewBox="0 0 235.29 54.07"><defs><style>.cls-1{fill:#1e2830;}.cls-2{fill:#e23333;}.cls-3{font-size:48px;font-family:Roboto-Thin, Roboto;}</style></defs><title>Asset 1</title><g id="Layer_2" data-name="Layer 2"><g id="Layer_1-2" data-name="Layer 1"><g id="Layer_2-2" data-name="Layer 2"><g id="Layer_1-2-2" data-name="Layer 1-2"><path class="cls-1" d="M56.17,10.08A20,20,0,0,0,23.91,32.69,9.44,9.44,0,0,0,33,32.51a12.29,12.29,0,1,1,17.74-17l8.67,8.71L39.64,44.07a23.18,23.18,0,0,0,2.36.15,19.89,19.89,0,0,0,14.14-5.86L70.31,24.22Z"/><path class="cls-2" d="M14.14,38.36A20,20,0,0,0,46.41,15.75a9.48,9.48,0,0,0-9.08.18,12.29,12.29,0,0,1-17.74,17h0L10.9,24.22,30.68,4.37q-1.2-.13-2.4-.15a19.91,19.91,0,0,0-14.14,5.86L0,24.22Z"/></g></g><text class="cls-3" transform="translate(75.89 41.06)">CAPEW</text></g></g></svg>